<svg height="172.187" viewBox="0 0 172.15 172.187" width="172.15" xmlns="http://www.w3.org/2000/svg"><path d="m3 168.9v-165.9h165.9l.25 166.187z" fill="#fff"/><g fill="#222433"><path d="m169.15 172.187-166.15-.287a3 3 0 0 1 -3-3v-165.9a3 3 0 0 1 3-3h165.9a3 3 0 0 1 3 3l.25 166.187a3 3 0 0 1 -3 3.005zm-163.15-6.282 160.145.277-.24-160.182h-159.905z"/><path d="m142.5 145.6h-113.2a3 3 0 0 1 -3-3v-113.2a3 3 0 0 1 3-3h113.2a3 3 0 0 1 3 3v113.2a3 3 0 0 1 -3 3zm-110.2-6h107.2v-107.2h-107.2z"/><path d="m29.3 145.6a3 3 0 0 1 -2.121-5.121l113.2-113.2a3 3 0 1 1 4.242 4.242l-113.2 113.2a2.992 2.992 0 0 1 -2.121.879z"/><path d="m142.5 145.6a2.989 2.989 0 0 1 -2.121-.879l-113.2-113.2a3 3 0 1 1 4.243-4.242l113.2 113.2a3 3 0 0 1 -2.122 5.121z"/></g></svg>