<svg height="280" viewBox="0 0 279.6 279.6" width="280" xmlns="http://www.w3.org/2000/svg"><circle cx="139.8" cy="139.7" fill="#7fd6c2" r="134.8"/><path d="m139.8 279.6c-77.1 0-139.8-62.7-139.8-139.8s62.7-139.8 139.8-139.8 139.8 62.7 139.8 139.8c.1 77-62.7 139.8-139.8 139.8zm0-269.7a129.8 129.8 0 1 0 129.8 129.8 129.911 129.911 0 0 0 -129.8-129.8z" fill="#383a48"/><circle cx="139.8" cy="102.4" fill="#f3f6e6" r="35.2"/><path d="m139.8 142.6a40.2 40.2 0 1 1 40.2-40.2 40.267 40.267 0 0 1 -40.2 40.2zm0-70.3a30.2 30.2 0 1 0 30.2 30.2 30.237 30.237 0 0 0 -30.2-30.2z" fill="#383a48"/><path d="m195.2 206.2h-110.7v-13.2a55.289 55.289 0 0 1 55.3-55.3 55.289 55.289 0 0 1 55.3 55.3z" fill="#f3f6e6"/><path d="m195.2 211.2h-110.7a4.951 4.951 0 0 1 -5-5v-13.2a60.3 60.3 0 1 1 120.6 0v13.2a4.929 4.929 0 0 1 -4.9 5zm-105.7-10h100.7v-8.2a50.3 50.3 0 1 0 -100.6 0z" fill="#383a48"/></svg>